<svg version="1.2" xmlns="http://www.w3.org/2000/svg" viewBox="0 0 400 287" width="400" height="287">
	<title>Proyecto nuevo</title>
	<style>
		.s0 { fill: #240707ff } 
	</style>
	<path fill-rule="evenodd" class="s0" d="m226.2 63.2c-14.4 14.5-37.8 14.5-52.2 0-14.5-14.5-14.5-37.9 0-52.4 14.4-14.4 37.8-14.4 52.2 0 14.5 14.5 14.5 37.9 0 52.4zm-26.1 221.7h-0.1c-34.4-40-101.7-61.8-199.6-66.7l67.7-112.4c0 0 12.4 3.1 29.6 12.3l-26.2-4.5-45.8 92.7c93.3 7.6 155.5 27.7 174.3 65l0.1 0.1 0.1-0.1c18.8-37.3 81-57.4 174.3-65l-45.8-92.7-26.2 4.5c17.2-9.2 29.6-12.3 29.6-12.3l67.7 112.4c-97.9 4.9-165.2 26.7-199.6 66.7zm-19.6 2c-72.1-39.1-157.4-41.8-157.4-41.8l6.3-13c110.1 10.9 151.1 54.8 151.1 54.8zm190.4-54.8l6.3 13c0 0-85.2 2.7-157.4 41.8 0 0 41-43.9 151.1-54.8zm-204.2-100.7c-27.3-42.4-76.5-106.2-76.5-106.2 0 0 76.9 69.5 107.2 69.7h5.3c30.3-0.2 107.2-69.7 107.2-69.7 0 0-45.1 58.5-73 100.6-8.3-6.9-20.1-11.2-32-11.2-16.3 0-28.7 6.3-38.2 16.8zm-15.7 53.5l11.8 5.6c-4.4 7.8-12.8 16.1-28.1 16.1-21.2 0-36.5-14.6-36.5-34.8 0-20.5 15-34.9 36.5-34.9 15.5 0 23.8 8.3 28.2 16l-11.9 5.7c-3.3-5.8-9.8-9.7-16.3-9.7-12.8 0-22.1 9.6-22.1 22.9 0 13 9.5 22.8 22.1 22.8 6.5 0 13-3.9 16.3-9.7zm153.5-13.2c0 20-14 32.9-35.6 32.9h-27.2v-65.7h27.1c21.7 0 35.7 12.8 35.7 32.8zm-14.1 0c0-13-8.4-21.3-21.5-21.3h-13.5v42.8h13.4c12.5 0 21.6-9 21.6-21.5zm-69.6 13.2l11.8 5.6c-4.4 7.8-12.8 16.1-28.1 16.1-21.2 0-36.5-14.6-36.5-34.8 0-7.6 2.1-14.6 6.1-20.3 6.5-9.2 17.6-14.6 30.4-14.6 8.7 0 16.1 2.7 21.8 8 2.5 2.2 4.6 4.9 6.4 8l-12 5.7q-0.2-0.3-0.4-0.7c-3.5-5.5-9.6-9-15.8-9-12.8 0-22.1 9.6-22.1 22.9 0 13 9.5 22.8 22.1 22.8 6.5 0 13-3.9 16.3-9.7z"/>
</svg>