<?xml version="1.0" encoding="UTF-8" standalone="no"?>
<!-- Created with Inkscape (http://www.inkscape.org/) -->

<svg
   width="512"
   height="512"
   viewBox="0 0 512 512"
   version="1.1"
   id="svg1"
   xml:space="preserve"
   inkscape:version="1.4.2 (f4327f4, 2025-05-13)"
   sodipodi:docname="logo.svg"
   xmlns:inkscape="http://www.inkscape.org/namespaces/inkscape"
   xmlns:sodipodi="http://sodipodi.sourceforge.net/DTD/sodipodi-0.dtd"
   xmlns="http://www.w3.org/2000/svg"
   xmlns:svg="http://www.w3.org/2000/svg"><sodipodi:namedview
     id="namedview1"
     pagecolor="#ffffff"
     bordercolor="#000000"
     borderopacity="0.25"
     inkscape:showpageshadow="2"
     inkscape:pageopacity="0.0"
     inkscape:pagecheckerboard="0"
     inkscape:deskcolor="#d1d1d1"
     inkscape:document-units="px"
     inkscape:zoom="0.80957031"
     inkscape:cx="219.86972"
     inkscape:cy="446.53317"
     inkscape:window-width="1920"
     inkscape:window-height="1009"
     inkscape:window-x="-8"
     inkscape:window-y="-8"
     inkscape:window-maximized="1"
     inkscape:current-layer="layer1" /><defs
     id="defs1" /><g
     inkscape:label="Capa 1"
     inkscape:groupmode="layer"
     id="layer1"><ellipse
       style="fill:#02594d;fill-opacity:1;stroke-width:1.21317"
       id="path19"
       cx="256.30881"
       cy="257.54404"
       ry="251.36792"
       rx="251.3679" /><g
       id="g14"
       transform="matrix(0.86526946,0,0,0.8741573,33.196625,40.508389)"
       style="fill:#90dcc2;fill-opacity:1"><path
         style="fill:#90dcc2;fill-opacity:1"
         d="M 51.570567,331.65742 168.91677,110.86128 193.3566,160.82116 76.971431,378.52475 Z"
         id="path8" /><path
         style="fill:#90dcc2;fill-opacity:1"
         d="m 193.38963,160.84922 23.08323,-49.75634 79.8263,0.23161 22.85162,42.15199 1.54403,7.10253 -24.24125,45.39445 -25.16767,-45.85766 z"
         id="path9" /><path
         style="fill:#90dcc2;fill-opacity:1"
         d="m 268.50663,163.51267 25.16768,46.78407 -87.85525,172.31363 -25.16767,-47.86489 z"
         id="path10" /><path
         style="fill:#90dcc2;fill-opacity:1"
         d="m 134.94566,271.63818 24.89289,-45.20024 h 73.15015 l -22.49094,45.4186 z"
         id="path11" /><path
         style="fill:#90dcc2;fill-opacity:1"
         d="m 320.69481,160.57901 22.54283,-49.56333 91.86972,0.30881 29.02774,48.48251 -112.55971,225.89143 -97.89143,-0.1544 -25.47648,-46.93848 1.69843,-3.24246 94.34017,0.46321 85.84801,-175.55609 z"
         id="path12" /><path
         style="fill:#90dcc2;fill-opacity:1"
         d="m 285.50396,226.32876 32.09872,0.10918 28.27745,54.58967 -23.80109,49.23988 -31.55283,-55.46311 20.19818,-2.72948 -49.13071,-0.10918 z"
         id="path13" /></g></g></svg>
